<?xml version="1.0" standalone="no"?>
<!DOCTYPE svg PUBLIC "-//W3C//DTD SVG 20010904//EN"
 "http://www.w3.org/TR/2001/REC-SVG-20010904/DTD/svg10.dtd">
<svg version="1.0" xmlns="http://www.w3.org/2000/svg"
 width="382.000000pt" height="382.000000pt" viewBox="0 0 382.000000 382.000000"
 preserveAspectRatio="xMidYMid meet">
<metadata>
Created by potrace 1.14, written by Peter Selinger 2001-2017
</metadata>
<g transform="translate(0.000000,382.000000) scale(0.100000,-0.100000)"
fill="#000000" stroke="none">
<path d="M2148 3585 c-2 -2 -13 -6 -24 -8 -22 -3 -69 -32 -104 -65 -14 -13
-41 -30 -60 -39 -19 -9 -48 -26 -65 -38 -75 -53 -131 -79 -175 -81 -75 -2 -79
-3 -99 -23 -22 -22 -71 -36 -71 -20 0 14 -130 5 -161 -11 -10 -6 -19 -9 -19
-6 0 16 -215 -80 -248 -112 -8 -7 -26 -19 -42 -27 -15 -8 -41 -31 -58 -52 -25
-33 -29 -46 -28 -93 2 -45 -3 -63 -26 -98 -40 -62 -69 -120 -74 -151 -3 -14
-9 -48 -14 -76 -21 -108 -23 -122 -25 -180 -1 -33 -10 -89 -20 -125 -19 -71
-21 -100 -11 -205 6 -72 22 -125 37 -125 4 0 8 -35 7 -77 0 -43 2 -100 5 -128
3 -27 2 -54 -1 -60 -9 -14 -12 -34 -13 -73 -1 -33 -13 -50 -24 -33 -7 13 -34
3 -63 -23 -34 -30 -52 -107 -47 -201 7 -153 50 -306 99 -356 27 -27 35 -30 77
-27 l47 4 61 -92 c34 -51 61 -97 61 -103 0 -6 4 -11 8 -11 4 0 15 -12 24 -28
44 -73 177 -208 289 -294 86 -65 202 -138 220 -138 5 0 9 -4 9 -10 0 -5 8 -10
18 -10 10 0 22 -3 26 -7 6 -7 64 -29 101 -39 155 -43 315 -46 449 -9 90 24
137 48 223 111 228 169 359 332 408 510 9 33 24 75 34 94 18 34 34 105 47 205
3 28 8 53 10 56 4 7 16 111 19 164 3 62 -24 117 -53 107 -15 -5 -15 3 -2 48
10 31 17 67 37 175 2 17 14 50 25 75 24 52 31 94 30 165 -2 148 0 199 11 225
6 16 23 99 31 161 3 20 8 42 10 50 3 8 8 25 10 39 3 14 7 34 9 45 31 140 24
244 -20 345 -29 64 -78 128 -117 154 l-39 25 35 20 c19 12 41 36 50 54 15 31
15 37 -1 71 -18 43 -21 43 -74 9 -34 -22 -39 -22 -65 -9 -15 8 -56 45 -92 81
-110 113 -240 159 -368 131 -26 -6 -33 -4 -39 11 -13 38 -46 74 -88 98 -43 26
-87 39 -97 30z"/>
</g>
</svg>
